<?xml version="1.0"?>
<svg xmlns="http://www.w3.org/2000/svg" id="Layer_1" data-name="Layer 1" viewBox="0 0 64 64"><title>Dusk Part 3</title><rect x="5" y="7" width="54" height="50" style="fill:#85cbf8;"/><rect x="5" y="7" width="54" height="11" rx="3" ry="3" style="fill:#ace3ff;"/><path d="M58,57H6a1,1,0,0,1-1-1H5a4,4,0,0,1,4-4H55a4,4,0,0,1,4,4h0A1,1,0,0,1,58,57Z" style="fill:#6fc6f0;"/><circle cx="30" cy="29" r="14" style="fill:#ffeb9b;"/><path d="M38.08,37.08,21.92,20.92a2.32,2.32,0,0,0-3.57.31A14,14,0,0,0,37.77,40.65,2.32,2.32,0,0,0,38.08,37.08Z" style="fill:#f6d397;"/><circle cx="30" cy="29" r="10" style="fill:#bbdef9;"/><circle cx="30" cy="29" r="6" style="fill:#d2edff;"/><circle cx="26.78" cy="25.78" r="2.22" style="fill:#f3f3f3;"/><circle cx="33.5" cy="33.5" r="0.83" style="fill:#f3f3f3;"/><rect x="40.18" y="37.07" width="5.6" height="9.9" transform="translate(-17.13 42.7) rotate(-45)" style="fill:#cda1a7;"/><path d="M57,6H7A3,3,0,0,0,4,9V55a3,3,0,0,0,3,3H57a3,3,0,0,0,3-3V9A3,3,0,0,0,57,6Zm1,49a1,1,0,0,1-1,1H7a1,1,0,0,1-1-1V9A1,1,0,0,1,7,8H57a1,1,0,0,1,1,1Z" style="fill:#8d6c9f;"/><path d="M14,50a1,1,0,0,0-1,1v2a1,1,0,0,0,2,0V51A1,1,0,0,0,14,50Z" style="fill:#8d6c9f;"/><path d="M9,50a1,1,0,0,0-1,1v2a1,1,0,0,0,2,0V51A1,1,0,0,0,9,50Z" style="fill:#8d6c9f;"/><path d="M29,50a1,1,0,0,0-1,1v2a1,1,0,0,0,2,0V51A1,1,0,0,0,29,50Z" style="fill:#8d6c9f;"/><path d="M34,50a1,1,0,0,0-1,1v2a1,1,0,0,0,2,0V51A1,1,0,0,0,34,50Z" style="fill:#8d6c9f;"/><path d="M39,50a1,1,0,0,0-1,1v2a1,1,0,0,0,2,0V51A1,1,0,0,0,39,50Z" style="fill:#8d6c9f;"/><path d="M44,50a1,1,0,0,0-1,1v2a1,1,0,0,0,2,0V51A1,1,0,0,0,44,50Z" style="fill:#8d6c9f;"/><path d="M49,50a1,1,0,0,0-1,1v2a1,1,0,0,0,2,0V51A1,1,0,0,0,49,50Z" style="fill:#8d6c9f;"/><path d="M54,50a1,1,0,0,0-1,1v2a1,1,0,0,0,2,0V51A1,1,0,0,0,54,50Z" style="fill:#8d6c9f;"/><path d="M19,50a1,1,0,0,0-1,1v2a1,1,0,0,0,2,0V51A1,1,0,0,0,19,50Z" style="fill:#8d6c9f;"/><path d="M24,50a1,1,0,0,0-1,1v2a1,1,0,0,0,2,0V51A1,1,0,0,0,24,50Z" style="fill:#8d6c9f;"/><path d="M47.88,41.29l-4.59-4.59c-.09-.09-.26-.31-.25-.34a15.07,15.07,0,1,0-5.46,5.55s.22.12.3.2l4.59,4.59a3.83,3.83,0,1,0,5.41-5.41ZM17,29A13,13,0,1,1,30,42,13,13,0,0,1,17,29ZM46.46,45.29a1.83,1.83,0,0,1-2.59,0l-4.56-4.56a15.11,15.11,0,0,0,2.56-2.61l4.58,4.59a1.83,1.83,0,0,1,0,2.59Z" style="fill:#8d6c9f;"/><path d="M19.17,28.91A10.91,10.91,0,1,0,30.09,18,10.93,10.93,0,0,0,19.17,28.91Zm2,0a8.91,8.91,0,1,1,8.91,8.91A8.92,8.92,0,0,1,21.17,28.91Z" style="fill:#8d6c9f;"/><path d="M30.09,21.83a7.08,7.08,0,0,1,6.52,4.31,1,1,0,1,1-1.84.79,5.08,5.08,0,0,0-4.68-3.09,1,1,0,0,1,0-2Z" style="fill:#8d6c9f;"/></svg>
